<svg xmlns="http://www.w3.org/2000/svg" version="1.1" xmlns:xlink="http://www.w3.org/1999/xlink" xmlns:svgjs="http://svgjs.dev/svgjs" width="2000" height="1500" viewBox="0 0 2000 1500"><rect width="2000" height="1500" fill="#ffffff"></rect><g transform="matrix(0.75,0,0,0.75,249.090909090909,534.0381892094712)"><svg viewBox="0 0 396 114" data-background-color="#ffffff" preserveAspectRatio="xMidYMid meet" height="575" width="2000" xmlns="http://www.w3.org/2000/svg" xmlns:xlink="http://www.w3.org/1999/xlink"><g id="tight-bounds" transform="matrix(1,0,0,1,0.2400000000000091,0.08903520027891432)"><svg viewBox="0 0 395.52 113.82192959944217" height="113.82192959944217" width="395.52"><g><svg viewBox="0 0 395.52 113.82192959944217" height="113.82192959944217" width="395.52"><g transform="matrix(1,0,0,1,0,58.53409681802021)"><svg viewBox="0 0 395.52 55.287832781421955" height="55.287832781421955" width="395.52"><g id="textblocktransform"><svg viewBox="0 0 395.52 55.287832781421955" height="55.287832781421955" width="395.52" id="textblock"><g><svg viewBox="0 0 395.52 55.287832781421955" height="55.287832781421955" width="395.52"><g transform="matrix(1,0,0,1,0,0)"><svg width="395.52" viewBox="4.49404750251104 -25.65131395921748 407.6355131725917 56.981425708180815" height="55.287832781421955" data-palette-color="url(#69e36e1d-5187-4575-b6b6-d262e3d06e75)"></svg></g></svg></g></svg></g></svg></g><g transform="matrix(1,0,0,1,164.58730033114682,0)"><svg viewBox="0 0 66.34539933770634 55.287832781421955" height="55.287832781421955" width="66.34539933770634"><g><svg xmlns="http://www.w3.org/2000/svg" xmlns:xlink="http://www.w3.org/1999/xlink" version="1.1" x="0" y="0" viewBox="5 7.5 30 25" enable-background="new 0 0 40 40" xml:space="preserve" height="55.287832781421955" width="66.34539933770634" class="icon-icon-0" data-fill-palette-color="accent" id="icon-0"></svg></g></svg></g><g></g></svg></g><defs></defs><mask id="828a8be6-15b9-4037-8cae-4d2d05aeb242"><g id="SvgjsG6138"><svg viewBox="0 0 395.52 113.82192959944217" height="113.82192959944217" width="395.52"><g><svg viewBox="0 0 395.52 113.82192959944217" height="113.82192959944217" width="395.52"><g transform="matrix(1,0,0,1,0,58.53409681802021)"><svg viewBox="0 0 395.52 55.287832781421955" height="55.287832781421955" width="395.52"><g id="SvgjsG6137"><svg viewBox="0 0 395.52 55.287832781421955" height="55.287832781421955" width="395.52" id="SvgjsSvg6136"><g><svg viewBox="0 0 395.52 55.287832781421955" height="55.287832781421955" width="395.52"><g transform="matrix(1,0,0,1,0,0)"><svg width="395.52" viewBox="4.49404750251104 -25.65131395921748 407.6355131725917 56.981425708180815" height="55.287832781421955" data-palette-color="url(#69e36e1d-5187-4575-b6b6-d262e3d06e75)"><path d="M11.493 16.521v0c-1.186-0.181-2.087-0.355-2.702-0.523-0.608-0.167-1.033-0.39-1.274-0.669-0.233-0.285-0.387-0.669-0.462-1.153v0l-2.554-38.21c-0.055-0.831 0.22-1.335 0.827-1.513 0.607-0.177 1.81-0.129 3.61 0.145v0c1.344 0.205 2.318 0.407 2.921 0.607 0.61 0.201 0.999 0.459 1.167 0.775 0.16 0.321 0.231 0.76 0.214 1.317v0l-0.723 29.579 0.771 0.117 8.019-28.467c0.149-0.537 0.342-0.936 0.577-1.197 0.234-0.254 0.659-0.388 1.275-0.402 0.622-0.013 1.566 0.077 2.832 0.269v0c1.793 0.273 2.952 0.585 3.479 0.935 0.527 0.35 0.64 0.913 0.339 1.69v0l-13.629 35.745c-0.279 0.679-0.703 1.073-1.272 1.182-0.563 0.11-1.701 0.034-3.415-0.227zM39.577 20.773v0c-2.584-0.34-4.634-0.96-6.15-1.859-1.515-0.906-2.566-1.985-3.154-3.24-0.581-1.253-0.807-2.581-0.676-3.982v0l2.688-25.618c0.258-2.42 1.404-4.256 3.439-5.509 2.034-1.252 5.13-1.604 9.287-1.056v0c4.164 0.548 7.066 1.69 8.707 3.426 1.641 1.736 2.269 3.806 1.886 6.209v0l-4.056 25.439c-0.217 1.39-0.775 2.615-1.674 3.672-0.899 1.058-2.191 1.83-3.876 2.314-1.677 0.478-3.817 0.546-6.421 0.204zM40.094 16.847v0c1.434 0.189 2.478 0.078 3.13-0.335 0.659-0.411 1.064-1.292 1.216-2.644v0l2.786-26.593c0.153-1.419-0.011-2.341-0.493-2.768-0.481-0.433-1.237-0.718-2.268-0.854v0c-1.024-0.135-1.825-0.055-2.401 0.239-0.576 0.287-0.973 1.136-1.193 2.546v0l-4.194 26.408c-0.211 1.344-0.047 2.3 0.49 2.869 0.544 0.569 1.519 0.946 2.927 1.132zM61.884 23.219v0c-1.484-0.17-2.394-0.364-2.732-0.584-0.345-0.214-0.491-0.694-0.439-1.439v0l3.213-37.267c0.044-0.565 0.186-0.979 0.424-1.24 0.231-0.255 0.67-0.4 1.318-0.433 0.648-0.033 1.608 0.023 2.879 0.168v0c1.272 0.145 2.219 0.307 2.843 0.486 0.624 0.179 1.019 0.418 1.186 0.72 0.173 0.308 0.217 0.743 0.133 1.303v0l-5.31 37.027c-0.098 0.74-0.339 1.176-0.723 1.306-0.385 0.137-1.316 0.121-2.792-0.047zM84.121 25.761v0c-2.595-0.251-4.665-0.8-6.21-1.647-1.545-0.853-2.629-1.896-3.253-3.128-0.631-1.233-0.901-2.552-0.813-3.957v0l1.807-25.696c0.168-2.428 1.247-4.303 3.237-5.624 1.99-1.321 5.072-1.779 9.246-1.374v0c4.18 0.405 7.12 1.447 8.82 3.125 1.699 1.678 2.399 3.725 2.097 6.141v0l-1.426 11.717c-0.109 0.987-0.458 1.577-1.046 1.767-0.588 0.198-1.633 0.224-3.132 0.078v0c-1.52-0.147-2.536-0.373-3.049-0.677-0.514-0.298-0.739-0.942-0.676-1.934v0l0.892-12.532c0.104-1.423-0.091-2.34-0.587-2.75-0.495-0.416-1.261-0.675-2.296-0.775v0c-1.029-0.1-1.826 0.007-2.392 0.321-0.566 0.307-0.934 1.169-1.105 2.585v0l-3.284 26.537c-0.164 1.35 0.035 2.301 0.598 2.851 0.556 0.55 1.541 0.893 2.954 1.03v0c1.44 0.14 2.486-0.007 3.137-0.439 0.651-0.433 1.019-1.328 1.104-2.686v0l0.179-2.887c0.063-0.992 0.385-1.584 0.966-1.775 0.582-0.198 1.613-0.226 3.092-0.082v0c1.466 0.142 2.403 0.36 2.81 0.654 0.401 0.287 0.537 0.923 0.408 1.908v0l-0.332 2.701c-0.169 1.397-0.684 2.636-1.545 3.718-0.862 1.082-2.122 1.887-3.781 2.417-1.665 0.529-3.805 0.666-6.42 0.413zM116.576 28.186l-10.32-0.79c-1.489-0.114-2.406-0.274-2.751-0.481-0.352-0.201-0.517-0.675-0.493-1.422v0l1.817-37.36c0.045-0.846 0.263-1.377 0.654-1.595 0.392-0.224 1.129-0.295 2.212-0.212v0c0.612 0.047 1.502 0.115 2.673 0.205 1.17 0.09 2.429 0.189 3.778 0.299 1.349 0.11 2.608 0.21 3.778 0.3 1.17 0.09 2.064 0.158 2.682 0.205v0c0.857 0.066 1.344 0.26 1.46 0.583 0.123 0.317 0.147 0.957 0.073 1.921v0c-0.076 0.99-0.198 1.63-0.367 1.918-0.162 0.288-0.672 0.4-1.53 0.334v0l-6.88-0.527-1.577 14.833 5.843 0.448c0.838 0.064 1.322 0.248 1.452 0.552 0.13 0.304 0.159 0.932 0.087 1.882v0c-0.072 0.937-0.196 1.55-0.372 1.837-0.176 0.287-0.682 0.399-1.52 0.335v0l-5.962-0.456-1.272 12.158 6.88 0.527c0.838 0.064 1.321 0.255 1.45 0.572 0.129 0.317 0.16 0.922 0.092 1.812v0c-0.067 0.871-0.189 1.46-0.366 1.768-0.177 0.301-0.684 0.419-1.521 0.354zM147.038 29.881v0c-1.199-0.056-2.113-0.136-2.741-0.238-0.623-0.103-1.068-0.28-1.337-0.533-0.261-0.259-0.455-0.625-0.579-1.099v0l-6.521-37.736c-0.142-0.821 0.08-1.351 0.665-1.591 0.585-0.24 1.787-0.317 3.605-0.231v0c1.359 0.064 2.348 0.163 2.969 0.299 0.628 0.136 1.041 0.352 1.241 0.649 0.193 0.303 0.309 0.732 0.35 1.288v0l2.362 29.492 0.78 0.037 5.009-29.148c0.092-0.55 0.242-0.966 0.449-1.25 0.207-0.277 0.615-0.455 1.227-0.533 0.618-0.078 1.566-0.087 2.844-0.027v0c1.811 0.085 2.997 0.274 3.557 0.567 0.56 0.293 0.731 0.842 0.514 1.646v0l-9.831 36.97c-0.207 0.704-0.587 1.14-1.143 1.308-0.548 0.168-1.688 0.211-3.42 0.13zM178.473 31.018l-10.345-0.3c-1.493-0.043-2.416-0.16-2.771-0.35-0.361-0.184-0.548-0.649-0.56-1.397v0l0.043-37.405c0.005-0.847 0.197-1.388 0.577-1.624 0.381-0.242 1.114-0.348 2.2-0.316v0c0.613 0.018 1.506 0.044 2.679 0.078 1.173 0.034 2.436 0.074 3.788 0.119 1.353 0.046 2.615 0.086 3.788 0.12 1.173 0.034 2.069 0.06 2.689 0.078v0c0.86 0.025 1.355 0.196 1.486 0.513 0.138 0.311 0.193 0.949 0.165 1.916v0c-0.029 0.993-0.121 1.637-0.276 1.933-0.149 0.296-0.653 0.431-1.513 0.406v0l-6.897-0.2-0.872 14.891 5.858 0.17c0.84 0.024 1.332 0.185 1.477 0.483 0.145 0.298 0.203 0.923 0.175 1.876v0c-0.027 0.94-0.122 1.557-0.283 1.852-0.162 0.295-0.663 0.431-1.503 0.407v0l-5.977-0.173-0.694 12.205 6.897 0.2c0.84 0.024 1.332 0.192 1.476 0.503 0.144 0.311 0.204 0.913 0.178 1.805v0c-0.025 0.873-0.119 1.467-0.282 1.783-0.162 0.309-0.663 0.451-1.503 0.427zM190.29 31.177v0c-1.493-0.015-2.419-0.114-2.777-0.297-0.365-0.177-0.56-0.639-0.586-1.386v0l-0.668-37.399c-0.014-0.567 0.083-0.993 0.293-1.277 0.203-0.278 0.625-0.467 1.266-0.567 0.641-0.1 1.602-0.144 2.881-0.132v0c0.227 0.002 0.43 0.004 0.61 0.007v0 0l5.54 0.055c2.213 0.022 4.21 0.312 5.992 0.869 1.774 0.564 3.169 1.428 4.184 2.592 1.022 1.17 1.49 2.695 1.405 4.574v0l-0.435 11.537c-0.046 1.246-0.408 2.469-1.087 3.669-0.685 1.2-1.842 2.165-3.469 2.896v0l4.425 11.584c0.221 0.582 0.389 1.057 0.506 1.425 0.123 0.368 0.183 0.682 0.18 0.942v0c-0.004 0.387-0.183 0.662-0.538 0.825-0.348 0.17-1.196 0.248-2.542 0.235v0c-0.853-0.009-1.503-0.068-1.949-0.18-0.446-0.111-0.787-0.308-1.024-0.59-0.244-0.289-0.493-0.692-0.748-1.208v0l-4.961-11.96-2.67-0.026-0.461 12.196c-0.021 0.747-0.215 1.205-0.584 1.374-0.368 0.176-1.296 0.257-2.783 0.242zM196.027-5.627v0l-1.02-0.01-0.729 19.043 1.829 0.018c1.553 0.015 2.612-0.234 3.178-0.748 0.558-0.508 0.831-1.445 0.818-2.812v0l-0.215-12.513c-0.021-1.247-0.283-2.05-0.786-2.408-0.496-0.365-1.521-0.555-3.075-0.57zM218.222 31.28v0c-1.493 0.009-2.421-0.075-2.782-0.253-0.368-0.171-0.571-0.63-0.608-1.376v0l-1.269-37.383c-0.023-0.567 0.067-0.994 0.272-1.282 0.198-0.281 0.617-0.477 1.256-0.588 0.639-0.111 1.599-0.17 2.879-0.177v0c1.28-0.008 2.24 0.04 2.881 0.142 0.641 0.103 1.062 0.293 1.263 0.572 0.208 0.285 0.304 0.711 0.288 1.278v0l-0.84 37.396c-0.009 0.747-0.196 1.208-0.562 1.384-0.366 0.182-1.292 0.278-2.778 0.287zM233.355 31.039v0c-1.493 0.031-2.421-0.039-2.785-0.211-0.37-0.166-0.58-0.621-0.629-1.367v0l-1.825-37.36c-0.038-0.846 0.147-1.397 0.555-1.652 0.408-0.262 1.275-0.407 2.602-0.435v0c0.7-0.015 1.656-0.035 2.869-0.06 1.213-0.025 2.486-0.049 3.82-0.07 1.327-0.021 2.523-0.043 3.589-0.066 1.073-0.023 1.803-0.038 2.19-0.046v0c0.86-0.018 1.363 0.128 1.509 0.439 0.153 0.304 0.24 0.939 0.26 1.905v0c0.021 0.993-0.039 1.641-0.179 1.944-0.134 0.303-0.63 0.463-1.49 0.481v0l-6.899 0.145-0.127 14.916 5.859-0.123c0.84-0.018 1.339 0.119 1.499 0.409 0.159 0.29 0.249 0.912 0.269 1.864v0c0.02 0.94-0.044 1.561-0.191 1.865-0.147 0.303-0.64 0.464-1.48 0.481v0l-5.979 0.125-0.12 15.216c0 0.633-0.181 1.051-0.544 1.252-0.363 0.201-1.287 0.317-2.773 0.348zM255.436 30.434v0c-1.492 0.052-2.422-0.006-2.788-0.173-0.372-0.161-0.588-0.613-0.647-1.359v0l-2.334-37.331c-0.04-0.566 0.039-0.995 0.235-1.289 0.19-0.287 0.603-0.495 1.239-0.623 0.636-0.129 1.593-0.215 2.873-0.26v0c1.279-0.044 2.24-0.024 2.884 0.06 0.643 0.084 1.07 0.263 1.279 0.536 0.216 0.279 0.325 0.703 0.324 1.27v0l0.226 37.404c0.013 0.747-0.161 1.213-0.522 1.399-0.36 0.193-1.283 0.315-2.769 0.366zM277.805 29.659v0c-2.603 0.135-4.732-0.101-6.386-0.71-1.654-0.615-2.881-1.486-3.68-2.612-0.806-1.126-1.269-2.391-1.389-3.794v0l-2.014-25.68c-0.193-2.427 0.597-4.44 2.37-6.041 1.773-1.601 4.753-2.51 8.941-2.727v0c4.194-0.218 7.256 0.378 9.185 1.786 1.929 1.409 2.923 3.33 2.983 5.763v0l0.322 11.799c0.038 0.993-0.219 1.627-0.773 1.903-0.553 0.282-1.581 0.463-3.086 0.541v0c-1.525 0.079-2.563 0.006-3.115-0.219-0.552-0.218-0.87-0.823-0.956-1.813v0l-0.97-12.526c-0.107-1.423-0.437-2.3-0.988-2.633-0.552-0.339-1.347-0.481-2.386-0.427v0c-1.032 0.054-1.805 0.277-2.318 0.672-0.514 0.387-0.751 1.294-0.71 2.72v0l0.677 26.731c0.037 1.36 0.375 2.27 1.013 2.731 0.631 0.461 1.656 0.655 3.075 0.581v0c1.445-0.075 2.457-0.375 3.037-0.898 0.58-0.524 0.812-1.464 0.695-2.82v0l-0.25-2.881c-0.085-0.99 0.146-1.623 0.692-1.899 0.546-0.282 1.562-0.462 3.047-0.538v0c1.471-0.076 2.43 0.001 2.876 0.231 0.439 0.224 0.667 0.833 0.685 1.827v0l0.071 2.72c0.04 1.407-0.287 2.708-0.978 3.906-0.692 1.198-1.819 2.181-3.382 2.949-1.569 0.769-3.665 1.222-6.288 1.358zM296.221 28.26v0c-1.256 0.095-2.135 0.06-2.635-0.103-0.501-0.17-0.71-0.689-0.629-1.557v0l3.64-37.479c0.047-0.619 0.198-1.095 0.454-1.428 0.249-0.34 0.784-0.597 1.606-0.772 0.822-0.176 2.115-0.33 3.877-0.462v0c1.762-0.133 3.059-0.173 3.891-0.123 0.833 0.051 1.398 0.226 1.695 0.525 0.296 0.292 0.517 0.74 0.662 1.344v0l9.205 36.512c0.211 0.847 0.085 1.391-0.379 1.633-0.464 0.235-1.334 0.401-2.61 0.497v0c-1.017 0.076-1.781 0.097-2.292 0.063-0.517-0.035-0.883-0.181-1.096-0.439-0.213-0.258-0.391-0.669-0.534-1.234v0l-1.422-5.709-9.234 0.694-0.562 5.859c-0.05 0.579-0.161 1.012-0.334 1.299-0.179 0.288-0.515 0.487-1.008 0.597-0.493 0.111-1.258 0.205-2.295 0.283zM303.184-6.23l-0.22 0.017-2.093 21.768 7.629-0.574zM330.494 25.451v0c-1.487 0.14-2.414 0.137-2.783-0.009-0.368-0.139-0.604-0.579-0.707-1.32v0l-4.242-34.404-4.52 0.426c-0.843 0.079-1.355-0.023-1.536-0.308-0.181-0.284-0.317-0.918-0.41-1.9v0c-0.091-0.969-0.075-1.613 0.049-1.933 0.124-0.32 0.607-0.519 1.451-0.598v0l17.701-1.667c0.856-0.081 1.375 0.025 1.557 0.316 0.181 0.291 0.318 0.921 0.409 1.89v0c0.092 0.982 0.076 1.63-0.048 1.943-0.125 0.313-0.615 0.51-1.472 0.591v0l-4.52 0.425 2.293 34.708c0.039 0.632-0.118 1.062-0.471 1.29-0.354 0.227-1.27 0.411-2.751 0.55zM349.638 23.532v0c-1.485 0.159-2.416 0.169-2.793 0.028-0.383-0.133-0.631-0.569-0.744-1.308v0l-5.027-37.065c-0.08-0.561-0.033-0.995 0.142-1.302 0.169-0.3 0.566-0.537 1.191-0.712 0.625-0.174 1.574-0.33 2.846-0.466v0c1.273-0.137 2.233-0.186 2.881-0.149 0.648 0.038 1.086 0.185 1.315 0.442 0.236 0.263 0.374 0.677 0.415 1.243v0l2.929 37.291c0.066 0.744-0.073 1.221-0.42 1.433-0.345 0.218-1.257 0.407-2.735 0.565zM371.942 21.135v0c-2.587 0.323-4.727 0.241-6.42-0.246-1.694-0.494-2.984-1.273-3.87-2.338-0.879-1.066-1.432-2.294-1.659-3.683v0l-3.865-25.468c-0.361-2.407 0.285-4.473 1.937-6.197 1.652-1.725 4.559-2.847 8.72-3.367v0c4.168-0.52 7.264-0.148 9.29 1.118 2.026 1.265 3.156 3.11 3.392 5.532v0l2.496 25.638c0.141 1.4-0.09 2.725-0.693 3.977-0.603 1.251-1.658 2.323-3.166 3.217-1.502 0.886-3.556 1.492-6.162 1.817zM371.451 17.206v0c1.436-0.179 2.417-0.55 2.945-1.113 0.534-0.564 0.704-1.519 0.509-2.866v0l-4.017-26.436c-0.21-1.412-0.602-2.263-1.175-2.554-0.575-0.298-1.378-0.382-2.41-0.253v0c-1.025 0.128-1.78 0.407-2.264 0.837-0.485 0.423-0.655 1.345-0.511 2.765v0l2.607 26.612c0.135 1.354 0.535 2.238 1.198 2.652 0.67 0.414 1.709 0.532 3.118 0.356zM394.153 17.827v0c-1.431 0.212-2.338 0.256-2.721 0.13-0.388-0.118-0.653-0.543-0.795-1.277v0l-6.512-36.833c-0.144-0.835-0.016-1.406 0.382-1.715 0.392-0.314 1.431-0.596 3.12-0.846v0c1.213-0.18 2.091-0.239 2.632-0.178 0.541 0.055 0.909 0.29 1.106 0.705v0 0l12.613 23.161 0.197-0.029-4.619-23.386c-0.157-0.833-0.02-1.406 0.412-1.719 0.438-0.321 1.507-0.608 3.209-0.86v0c1.26-0.187 2.207-0.273 2.843-0.259 0.636 0.014 1.069 0.145 1.301 0.393 0.233 0.255 0.382 0.665 0.445 1.228v0l4.328 36.419c0.09 0.742 0.01 1.343-0.238 1.804-0.255 0.462-1.016 0.787-2.282 0.976v0c-0.607 0.09-1.107 0.124-1.501 0.101-0.401-0.021-0.704-0.182-0.911-0.482v0l-0.062 0.06-13.421-23.435-0.267 0.039 3.358 23.947c0.09 0.742-0.008 1.221-0.293 1.438-0.284 0.224-1.058 0.43-2.324 0.618z" opacity="1" transform="matrix(1,0,0,1,0,0)" fill="white" class="wordmark-text-0" id="SvgjsPath6135"></path></svg></g></svg></g></svg></g></svg></g><g transform="matrix(1,0,0,1,164.58730033114682,0)"><svg viewBox="0 0 66.34539933770634 55.287832781421955" height="55.287832781421955" width="66.34539933770634"><g><svg xmlns="http://www.w3.org/2000/svg" xmlns:xlink="http://www.w3.org/1999/xlink" version="1.1" x="0" y="0" viewBox="5 7.5 30 25" enable-background="new 0 0 40 40" xml:space="preserve" height="55.287832781421955" width="66.34539933770634" class="icon-icon-0" data-fill-palette-color="accent" id="SvgjsSvg6134"><g fill="black"><path fill="black" d="M6 25.7C5.4 25.7 5 25.3 5 24.7V15.3C5 14.7 5.4 14.3 6 14.3S7 14.7 7 15.3V24.7C7 25.2 6.6 25.7 6 25.7"></path></g><g fill="black"><path fill="black" d="M10 28.5C9.4 28.5 9 28.1 9 27.5V12.5C9 11.9 9.4 11.5 10 11.5S11 11.9 11 12.5V27.5C11 28.1 10.6 28.5 10 28.5"></path></g><g fill="black"><path fill="black" d="M14 32.5C13.4 32.5 13 32.1 13 31.5V8.5C13 7.9 13.4 7.5 14 7.5S15 7.9 15 8.5V31.5C15 32.1 14.6 32.5 14 32.5"></path></g><g fill="black"><path fill="black" d="M18 29.5C17.4 29.5 17 29.1 17 28.5V11.5C17 10.9 17.4 10.5 18 10.5S19 10.9 19 11.5V28.5C19 29.1 18.6 29.5 18 29.5"></path></g><g fill="black"><path fill="black" d="M22 25.7C21.4 25.7 21 25.3 21 24.7V15.3C21 14.7 21.4 14.3 22 14.3S23 14.7 23 15.3V24.7C23 25.2 22.6 25.7 22 25.7"></path></g><g fill="black"><path fill="black" d="M26 28.5C25.4 28.5 25 28.1 25 27.5V12.5C25 11.9 25.4 11.5 26 11.5S27 11.9 27 12.5V27.5C27 28.1 26.6 28.5 26 28.5"></path></g><g fill="black"><path fill="black" d="M30 31.5C29.4 31.5 29 31.1 29 30.5V9.5C29 8.9 29.4 8.5 30 8.5S31 8.9 31 9.5V30.5C31 31.1 30.6 31.5 30 31.5"></path></g><g fill="black"><path fill="black" d="M34 25.7C33.4 25.7 33 25.3 33 24.7V15.3C33 14.7 33.4 14.3 34 14.3S35 14.7 35 15.3V24.7C35 25.2 34.6 25.7 34 25.7"></path></g></svg></g></svg></g><g></g></svg></g><defs><mask></mask></defs></svg><rect width="395.52" height="113.82192959944217" fill="black" stroke="none" visibility="hidden"></rect></g></mask><linearGradient x1="0" x2="1" y1="0.578" y2="0.595" id="69e36e1d-5187-4575-b6b6-d262e3d06e75"><stop stop-color="#6ee2f5" offset="0"></stop><stop stop-color="#6454f0" offset="1"></stop></linearGradient><rect width="395.52" height="113.82192959944217" fill="url(#69e36e1d-5187-4575-b6b6-d262e3d06e75)" mask="url(#828a8be6-15b9-4037-8cae-4d2d05aeb242)" data-fill-palette-color="primary"></rect><mask id="e477f16a-814a-46be-b925-5bf7845be994"><g id="SvgjsG6147"><svg viewBox="0 0 395.52 113.82192959944217" height="113.82192959944217" width="395.52"><g><svg viewBox="0 0 395.52 113.82192959944217" height="113.82192959944217" width="395.52"><g transform="matrix(1,0,0,1,0,58.53409681802021)"><svg viewBox="0 0 395.52 55.287832781421955" height="55.287832781421955" width="395.52"><g id="SvgjsG6146"><svg viewBox="0 0 395.52 55.287832781421955" height="55.287832781421955" width="395.52" id="SvgjsSvg6145"><g><svg viewBox="0 0 395.52 55.287832781421955" height="55.287832781421955" width="395.52"><g transform="matrix(1,0,0,1,0,0)"><svg width="395.52" viewBox="4.49404750251104 -25.65131395921748 407.6355131725917 56.981425708180815" height="55.287832781421955" data-palette-color="url(#69e36e1d-5187-4575-b6b6-d262e3d06e75)"></svg></g></svg></g></svg></g></svg></g><g transform="matrix(1,0,0,1,164.58730033114682,0)"><svg viewBox="0 0 66.34539933770634 55.287832781421955" height="55.287832781421955" width="66.34539933770634"><g><svg xmlns="http://www.w3.org/2000/svg" xmlns:xlink="http://www.w3.org/1999/xlink" version="1.1" x="0" y="0" viewBox="5 7.5 30 25" enable-background="new 0 0 40 40" xml:space="preserve" height="55.287832781421955" width="66.34539933770634" class="icon-icon-0" data-fill-palette-color="accent" id="SvgjsSvg6144"><g fill="white"><path fill="white" d="M6 25.7C5.4 25.7 5 25.3 5 24.7V15.3C5 14.7 5.4 14.3 6 14.3S7 14.7 7 15.3V24.7C7 25.2 6.6 25.7 6 25.7"></path></g><g fill="white"><path fill="white" d="M10 28.5C9.4 28.5 9 28.1 9 27.5V12.5C9 11.9 9.4 11.5 10 11.5S11 11.9 11 12.5V27.5C11 28.1 10.6 28.5 10 28.5"></path></g><g fill="white"><path fill="white" d="M14 32.5C13.4 32.5 13 32.1 13 31.5V8.5C13 7.9 13.4 7.5 14 7.5S15 7.9 15 8.5V31.5C15 32.1 14.6 32.5 14 32.5"></path></g><g fill="white"><path fill="white" d="M18 29.5C17.4 29.5 17 29.1 17 28.5V11.5C17 10.9 17.4 10.5 18 10.5S19 10.9 19 11.5V28.5C19 29.1 18.6 29.5 18 29.5"></path></g><g fill="white"><path fill="white" d="M22 25.7C21.4 25.7 21 25.3 21 24.7V15.3C21 14.7 21.4 14.3 22 14.3S23 14.7 23 15.3V24.7C23 25.2 22.6 25.7 22 25.7"></path></g><g fill="white"><path fill="white" d="M26 28.5C25.4 28.5 25 28.1 25 27.5V12.5C25 11.9 25.4 11.5 26 11.5S27 11.9 27 12.5V27.5C27 28.1 26.6 28.5 26 28.5"></path></g><g fill="white"><path fill="white" d="M30 31.5C29.4 31.5 29 31.1 29 30.5V9.5C29 8.9 29.4 8.5 30 8.5S31 8.9 31 9.5V30.5C31 31.1 30.6 31.5 30 31.5"></path></g><g fill="white"><path fill="white" d="M34 25.7C33.4 25.7 33 25.3 33 24.7V15.3C33 14.7 33.4 14.3 34 14.3S35 14.7 35 15.3V24.7C35 25.2 34.6 25.7 34 25.7"></path></g></svg></g></svg></g><g></g></svg></g><defs><mask></mask></defs><mask><g id="SvgjsG6143"><svg viewBox="0 0 395.52 113.82192959944217" height="113.82192959944217" width="395.52"><g><svg viewBox="0 0 395.52 113.82192959944217" height="113.82192959944217" width="395.52"><g transform="matrix(1,0,0,1,0,58.53409681802021)"><svg viewBox="0 0 395.52 55.287832781421955" height="55.287832781421955" width="395.52"><g id="SvgjsG6142"><svg viewBox="0 0 395.52 55.287832781421955" height="55.287832781421955" width="395.52" id="SvgjsSvg6141"><g><svg viewBox="0 0 395.52 55.287832781421955" height="55.287832781421955" width="395.52"><g transform="matrix(1,0,0,1,0,0)"><svg width="395.52" viewBox="4.49404750251104 -25.65131395921748 407.6355131725917 56.981425708180815" height="55.287832781421955" data-palette-color="url(#69e36e1d-5187-4575-b6b6-d262e3d06e75)"><path d="M11.493 16.521v0c-1.186-0.181-2.087-0.355-2.702-0.523-0.608-0.167-1.033-0.39-1.274-0.669-0.233-0.285-0.387-0.669-0.462-1.153v0l-2.554-38.21c-0.055-0.831 0.22-1.335 0.827-1.513 0.607-0.177 1.81-0.129 3.61 0.145v0c1.344 0.205 2.318 0.407 2.921 0.607 0.61 0.201 0.999 0.459 1.167 0.775 0.16 0.321 0.231 0.76 0.214 1.317v0l-0.723 29.579 0.771 0.117 8.019-28.467c0.149-0.537 0.342-0.936 0.577-1.197 0.234-0.254 0.659-0.388 1.275-0.402 0.622-0.013 1.566 0.077 2.832 0.269v0c1.793 0.273 2.952 0.585 3.479 0.935 0.527 0.35 0.64 0.913 0.339 1.69v0l-13.629 35.745c-0.279 0.679-0.703 1.073-1.272 1.182-0.563 0.11-1.701 0.034-3.415-0.227zM39.577 20.773v0c-2.584-0.34-4.634-0.96-6.15-1.859-1.515-0.906-2.566-1.985-3.154-3.24-0.581-1.253-0.807-2.581-0.676-3.982v0l2.688-25.618c0.258-2.42 1.404-4.256 3.439-5.509 2.034-1.252 5.13-1.604 9.287-1.056v0c4.164 0.548 7.066 1.69 8.707 3.426 1.641 1.736 2.269 3.806 1.886 6.209v0l-4.056 25.439c-0.217 1.39-0.775 2.615-1.674 3.672-0.899 1.058-2.191 1.83-3.876 2.314-1.677 0.478-3.817 0.546-6.421 0.204zM40.094 16.847v0c1.434 0.189 2.478 0.078 3.13-0.335 0.659-0.411 1.064-1.292 1.216-2.644v0l2.786-26.593c0.153-1.419-0.011-2.341-0.493-2.768-0.481-0.433-1.237-0.718-2.268-0.854v0c-1.024-0.135-1.825-0.055-2.401 0.239-0.576 0.287-0.973 1.136-1.193 2.546v0l-4.194 26.408c-0.211 1.344-0.047 2.3 0.49 2.869 0.544 0.569 1.519 0.946 2.927 1.132zM61.884 23.219v0c-1.484-0.17-2.394-0.364-2.732-0.584-0.345-0.214-0.491-0.694-0.439-1.439v0l3.213-37.267c0.044-0.565 0.186-0.979 0.424-1.24 0.231-0.255 0.67-0.4 1.318-0.433 0.648-0.033 1.608 0.023 2.879 0.168v0c1.272 0.145 2.219 0.307 2.843 0.486 0.624 0.179 1.019 0.418 1.186 0.72 0.173 0.308 0.217 0.743 0.133 1.303v0l-5.31 37.027c-0.098 0.74-0.339 1.176-0.723 1.306-0.385 0.137-1.316 0.121-2.792-0.047zM84.121 25.761v0c-2.595-0.251-4.665-0.8-6.21-1.647-1.545-0.853-2.629-1.896-3.253-3.128-0.631-1.233-0.901-2.552-0.813-3.957v0l1.807-25.696c0.168-2.428 1.247-4.303 3.237-5.624 1.99-1.321 5.072-1.779 9.246-1.374v0c4.18 0.405 7.12 1.447 8.82 3.125 1.699 1.678 2.399 3.725 2.097 6.141v0l-1.426 11.717c-0.109 0.987-0.458 1.577-1.046 1.767-0.588 0.198-1.633 0.224-3.132 0.078v0c-1.52-0.147-2.536-0.373-3.049-0.677-0.514-0.298-0.739-0.942-0.676-1.934v0l0.892-12.532c0.104-1.423-0.091-2.34-0.587-2.75-0.495-0.416-1.261-0.675-2.296-0.775v0c-1.029-0.1-1.826 0.007-2.392 0.321-0.566 0.307-0.934 1.169-1.105 2.585v0l-3.284 26.537c-0.164 1.35 0.035 2.301 0.598 2.851 0.556 0.55 1.541 0.893 2.954 1.03v0c1.44 0.14 2.486-0.007 3.137-0.439 0.651-0.433 1.019-1.328 1.104-2.686v0l0.179-2.887c0.063-0.992 0.385-1.584 0.966-1.775 0.582-0.198 1.613-0.226 3.092-0.082v0c1.466 0.142 2.403 0.36 2.81 0.654 0.401 0.287 0.537 0.923 0.408 1.908v0l-0.332 2.701c-0.169 1.397-0.684 2.636-1.545 3.718-0.862 1.082-2.122 1.887-3.781 2.417-1.665 0.529-3.805 0.666-6.42 0.413zM116.576 28.186l-10.32-0.79c-1.489-0.114-2.406-0.274-2.751-0.481-0.352-0.201-0.517-0.675-0.493-1.422v0l1.817-37.36c0.045-0.846 0.263-1.377 0.654-1.595 0.392-0.224 1.129-0.295 2.212-0.212v0c0.612 0.047 1.502 0.115 2.673 0.205 1.17 0.09 2.429 0.189 3.778 0.299 1.349 0.11 2.608 0.21 3.778 0.3 1.17 0.09 2.064 0.158 2.682 0.205v0c0.857 0.066 1.344 0.26 1.46 0.583 0.123 0.317 0.147 0.957 0.073 1.921v0c-0.076 0.99-0.198 1.63-0.367 1.918-0.162 0.288-0.672 0.4-1.53 0.334v0l-6.88-0.527-1.577 14.833 5.843 0.448c0.838 0.064 1.322 0.248 1.452 0.552 0.13 0.304 0.159 0.932 0.087 1.882v0c-0.072 0.937-0.196 1.55-0.372 1.837-0.176 0.287-0.682 0.399-1.52 0.335v0l-5.962-0.456-1.272 12.158 6.88 0.527c0.838 0.064 1.321 0.255 1.45 0.572 0.129 0.317 0.16 0.922 0.092 1.812v0c-0.067 0.871-0.189 1.46-0.366 1.768-0.177 0.301-0.684 0.419-1.521 0.354zM147.038 29.881v0c-1.199-0.056-2.113-0.136-2.741-0.238-0.623-0.103-1.068-0.28-1.337-0.533-0.261-0.259-0.455-0.625-0.579-1.099v0l-6.521-37.736c-0.142-0.821 0.08-1.351 0.665-1.591 0.585-0.24 1.787-0.317 3.605-0.231v0c1.359 0.064 2.348 0.163 2.969 0.299 0.628 0.136 1.041 0.352 1.241 0.649 0.193 0.303 0.309 0.732 0.35 1.288v0l2.362 29.492 0.78 0.037 5.009-29.148c0.092-0.55 0.242-0.966 0.449-1.25 0.207-0.277 0.615-0.455 1.227-0.533 0.618-0.078 1.566-0.087 2.844-0.027v0c1.811 0.085 2.997 0.274 3.557 0.567 0.56 0.293 0.731 0.842 0.514 1.646v0l-9.831 36.97c-0.207 0.704-0.587 1.14-1.143 1.308-0.548 0.168-1.688 0.211-3.42 0.13zM178.473 31.018l-10.345-0.3c-1.493-0.043-2.416-0.16-2.771-0.35-0.361-0.184-0.548-0.649-0.56-1.397v0l0.043-37.405c0.005-0.847 0.197-1.388 0.577-1.624 0.381-0.242 1.114-0.348 2.2-0.316v0c0.613 0.018 1.506 0.044 2.679 0.078 1.173 0.034 2.436 0.074 3.788 0.119 1.353 0.046 2.615 0.086 3.788 0.12 1.173 0.034 2.069 0.06 2.689 0.078v0c0.86 0.025 1.355 0.196 1.486 0.513 0.138 0.311 0.193 0.949 0.165 1.916v0c-0.029 0.993-0.121 1.637-0.276 1.933-0.149 0.296-0.653 0.431-1.513 0.406v0l-6.897-0.2-0.872 14.891 5.858 0.17c0.84 0.024 1.332 0.185 1.477 0.483 0.145 0.298 0.203 0.923 0.175 1.876v0c-0.027 0.94-0.122 1.557-0.283 1.852-0.162 0.295-0.663 0.431-1.503 0.407v0l-5.977-0.173-0.694 12.205 6.897 0.2c0.84 0.024 1.332 0.192 1.476 0.503 0.144 0.311 0.204 0.913 0.178 1.805v0c-0.025 0.873-0.119 1.467-0.282 1.783-0.162 0.309-0.663 0.451-1.503 0.427zM190.29 31.177v0c-1.493-0.015-2.419-0.114-2.777-0.297-0.365-0.177-0.56-0.639-0.586-1.386v0l-0.668-37.399c-0.014-0.567 0.083-0.993 0.293-1.277 0.203-0.278 0.625-0.467 1.266-0.567 0.641-0.1 1.602-0.144 2.881-0.132v0c0.227 0.002 0.43 0.004 0.61 0.007v0 0l5.54 0.055c2.213 0.022 4.21 0.312 5.992 0.869 1.774 0.564 3.169 1.428 4.184 2.592 1.022 1.17 1.49 2.695 1.405 4.574v0l-0.435 11.537c-0.046 1.246-0.408 2.469-1.087 3.669-0.685 1.2-1.842 2.165-3.469 2.896v0l4.425 11.584c0.221 0.582 0.389 1.057 0.506 1.425 0.123 0.368 0.183 0.682 0.18 0.942v0c-0.004 0.387-0.183 0.662-0.538 0.825-0.348 0.17-1.196 0.248-2.542 0.235v0c-0.853-0.009-1.503-0.068-1.949-0.18-0.446-0.111-0.787-0.308-1.024-0.59-0.244-0.289-0.493-0.692-0.748-1.208v0l-4.961-11.96-2.67-0.026-0.461 12.196c-0.021 0.747-0.215 1.205-0.584 1.374-0.368 0.176-1.296 0.257-2.783 0.242zM196.027-5.627v0l-1.02-0.01-0.729 19.043 1.829 0.018c1.553 0.015 2.612-0.234 3.178-0.748 0.558-0.508 0.831-1.445 0.818-2.812v0l-0.215-12.513c-0.021-1.247-0.283-2.05-0.786-2.408-0.496-0.365-1.521-0.555-3.075-0.57zM218.222 31.28v0c-1.493 0.009-2.421-0.075-2.782-0.253-0.368-0.171-0.571-0.63-0.608-1.376v0l-1.269-37.383c-0.023-0.567 0.067-0.994 0.272-1.282 0.198-0.281 0.617-0.477 1.256-0.588 0.639-0.111 1.599-0.17 2.879-0.177v0c1.28-0.008 2.24 0.04 2.881 0.142 0.641 0.103 1.062 0.293 1.263 0.572 0.208 0.285 0.304 0.711 0.288 1.278v0l-0.84 37.396c-0.009 0.747-0.196 1.208-0.562 1.384-0.366 0.182-1.292 0.278-2.778 0.287zM233.355 31.039v0c-1.493 0.031-2.421-0.039-2.785-0.211-0.37-0.166-0.58-0.621-0.629-1.367v0l-1.825-37.36c-0.038-0.846 0.147-1.397 0.555-1.652 0.408-0.262 1.275-0.407 2.602-0.435v0c0.7-0.015 1.656-0.035 2.869-0.06 1.213-0.025 2.486-0.049 3.82-0.07 1.327-0.021 2.523-0.043 3.589-0.066 1.073-0.023 1.803-0.038 2.19-0.046v0c0.86-0.018 1.363 0.128 1.509 0.439 0.153 0.304 0.24 0.939 0.26 1.905v0c0.021 0.993-0.039 1.641-0.179 1.944-0.134 0.303-0.63 0.463-1.49 0.481v0l-6.899 0.145-0.127 14.916 5.859-0.123c0.84-0.018 1.339 0.119 1.499 0.409 0.159 0.29 0.249 0.912 0.269 1.864v0c0.02 0.94-0.044 1.561-0.191 1.865-0.147 0.303-0.64 0.464-1.48 0.481v0l-5.979 0.125-0.12 15.216c0 0.633-0.181 1.051-0.544 1.252-0.363 0.201-1.287 0.317-2.773 0.348zM255.436 30.434v0c-1.492 0.052-2.422-0.006-2.788-0.173-0.372-0.161-0.588-0.613-0.647-1.359v0l-2.334-37.331c-0.04-0.566 0.039-0.995 0.235-1.289 0.19-0.287 0.603-0.495 1.239-0.623 0.636-0.129 1.593-0.215 2.873-0.26v0c1.279-0.044 2.24-0.024 2.884 0.06 0.643 0.084 1.07 0.263 1.279 0.536 0.216 0.279 0.325 0.703 0.324 1.27v0l0.226 37.404c0.013 0.747-0.161 1.213-0.522 1.399-0.36 0.193-1.283 0.315-2.769 0.366zM277.805 29.659v0c-2.603 0.135-4.732-0.101-6.386-0.71-1.654-0.615-2.881-1.486-3.68-2.612-0.806-1.126-1.269-2.391-1.389-3.794v0l-2.014-25.68c-0.193-2.427 0.597-4.44 2.37-6.041 1.773-1.601 4.753-2.51 8.941-2.727v0c4.194-0.218 7.256 0.378 9.185 1.786 1.929 1.409 2.923 3.33 2.983 5.763v0l0.322 11.799c0.038 0.993-0.219 1.627-0.773 1.903-0.553 0.282-1.581 0.463-3.086 0.541v0c-1.525 0.079-2.563 0.006-3.115-0.219-0.552-0.218-0.87-0.823-0.956-1.813v0l-0.97-12.526c-0.107-1.423-0.437-2.3-0.988-2.633-0.552-0.339-1.347-0.481-2.386-0.427v0c-1.032 0.054-1.805 0.277-2.318 0.672-0.514 0.387-0.751 1.294-0.71 2.72v0l0.677 26.731c0.037 1.36 0.375 2.27 1.013 2.731 0.631 0.461 1.656 0.655 3.075 0.581v0c1.445-0.075 2.457-0.375 3.037-0.898 0.58-0.524 0.812-1.464 0.695-2.82v0l-0.25-2.881c-0.085-0.99 0.146-1.623 0.692-1.899 0.546-0.282 1.562-0.462 3.047-0.538v0c1.471-0.076 2.43 0.001 2.876 0.231 0.439 0.224 0.667 0.833 0.685 1.827v0l0.071 2.72c0.04 1.407-0.287 2.708-0.978 3.906-0.692 1.198-1.819 2.181-3.382 2.949-1.569 0.769-3.665 1.222-6.288 1.358zM296.221 28.26v0c-1.256 0.095-2.135 0.06-2.635-0.103-0.501-0.17-0.71-0.689-0.629-1.557v0l3.64-37.479c0.047-0.619 0.198-1.095 0.454-1.428 0.249-0.34 0.784-0.597 1.606-0.772 0.822-0.176 2.115-0.33 3.877-0.462v0c1.762-0.133 3.059-0.173 3.891-0.123 0.833 0.051 1.398 0.226 1.695 0.525 0.296 0.292 0.517 0.74 0.662 1.344v0l9.205 36.512c0.211 0.847 0.085 1.391-0.379 1.633-0.464 0.235-1.334 0.401-2.61 0.497v0c-1.017 0.076-1.781 0.097-2.292 0.063-0.517-0.035-0.883-0.181-1.096-0.439-0.213-0.258-0.391-0.669-0.534-1.234v0l-1.422-5.709-9.234 0.694-0.562 5.859c-0.05 0.579-0.161 1.012-0.334 1.299-0.179 0.288-0.515 0.487-1.008 0.597-0.493 0.111-1.258 0.205-2.295 0.283zM303.184-6.23l-0.22 0.017-2.093 21.768 7.629-0.574zM330.494 25.451v0c-1.487 0.14-2.414 0.137-2.783-0.009-0.368-0.139-0.604-0.579-0.707-1.32v0l-4.242-34.404-4.52 0.426c-0.843 0.079-1.355-0.023-1.536-0.308-0.181-0.284-0.317-0.918-0.41-1.9v0c-0.091-0.969-0.075-1.613 0.049-1.933 0.124-0.32 0.607-0.519 1.451-0.598v0l17.701-1.667c0.856-0.081 1.375 0.025 1.557 0.316 0.181 0.291 0.318 0.921 0.409 1.89v0c0.092 0.982 0.076 1.63-0.048 1.943-0.125 0.313-0.615 0.51-1.472 0.591v0l-4.52 0.425 2.293 34.708c0.039 0.632-0.118 1.062-0.471 1.29-0.354 0.227-1.27 0.411-2.751 0.55zM349.638 23.532v0c-1.485 0.159-2.416 0.169-2.793 0.028-0.383-0.133-0.631-0.569-0.744-1.308v0l-5.027-37.065c-0.08-0.561-0.033-0.995 0.142-1.302 0.169-0.3 0.566-0.537 1.191-0.712 0.625-0.174 1.574-0.33 2.846-0.466v0c1.273-0.137 2.233-0.186 2.881-0.149 0.648 0.038 1.086 0.185 1.315 0.442 0.236 0.263 0.374 0.677 0.415 1.243v0l2.929 37.291c0.066 0.744-0.073 1.221-0.42 1.433-0.345 0.218-1.257 0.407-2.735 0.565zM371.942 21.135v0c-2.587 0.323-4.727 0.241-6.42-0.246-1.694-0.494-2.984-1.273-3.87-2.338-0.879-1.066-1.432-2.294-1.659-3.683v0l-3.865-25.468c-0.361-2.407 0.285-4.473 1.937-6.197 1.652-1.725 4.559-2.847 8.72-3.367v0c4.168-0.52 7.264-0.148 9.29 1.118 2.026 1.265 3.156 3.11 3.392 5.532v0l2.496 25.638c0.141 1.4-0.09 2.725-0.693 3.977-0.603 1.251-1.658 2.323-3.166 3.217-1.502 0.886-3.556 1.492-6.162 1.817zM371.451 17.206v0c1.436-0.179 2.417-0.55 2.945-1.113 0.534-0.564 0.704-1.519 0.509-2.866v0l-4.017-26.436c-0.21-1.412-0.602-2.263-1.175-2.554-0.575-0.298-1.378-0.382-2.41-0.253v0c-1.025 0.128-1.78 0.407-2.264 0.837-0.485 0.423-0.655 1.345-0.511 2.765v0l2.607 26.612c0.135 1.354 0.535 2.238 1.198 2.652 0.67 0.414 1.709 0.532 3.118 0.356zM394.153 17.827v0c-1.431 0.212-2.338 0.256-2.721 0.13-0.388-0.118-0.653-0.543-0.795-1.277v0l-6.512-36.833c-0.144-0.835-0.016-1.406 0.382-1.715 0.392-0.314 1.431-0.596 3.12-0.846v0c1.213-0.18 2.091-0.239 2.632-0.178 0.541 0.055 0.909 0.29 1.106 0.705v0 0l12.613 23.161 0.197-0.029-4.619-23.386c-0.157-0.833-0.02-1.406 0.412-1.719 0.438-0.321 1.507-0.608 3.209-0.86v0c1.26-0.187 2.207-0.273 2.843-0.259 0.636 0.014 1.069 0.145 1.301 0.393 0.233 0.255 0.382 0.665 0.445 1.228v0l4.328 36.419c0.09 0.742 0.01 1.343-0.238 1.804-0.255 0.462-1.016 0.787-2.282 0.976v0c-0.607 0.09-1.107 0.124-1.501 0.101-0.401-0.021-0.704-0.182-0.911-0.482v0l-0.062 0.06-13.421-23.435-0.267 0.039 3.358 23.947c0.09 0.742-0.008 1.221-0.293 1.438-0.284 0.224-1.058 0.43-2.324 0.618z" opacity="1" transform="matrix(1,0,0,1,0,0)" fill="black" class="wordmark-text-0" id="SvgjsPath6140"></path></svg></g></svg></g></svg></g></svg></g><g transform="matrix(1,0,0,1,164.58730033114682,0)"><svg viewBox="0 0 66.34539933770634 55.287832781421955" height="55.287832781421955" width="66.34539933770634"><g><svg xmlns="http://www.w3.org/2000/svg" xmlns:xlink="http://www.w3.org/1999/xlink" version="1.1" x="0" y="0" viewBox="5 7.5 30 25" enable-background="new 0 0 40 40" xml:space="preserve" height="55.287832781421955" width="66.34539933770634" class="icon-icon-0" data-fill-palette-color="accent" id="SvgjsSvg6139"><g fill="black"><path fill="black" d="M6 25.7C5.4 25.7 5 25.3 5 24.7V15.3C5 14.7 5.4 14.3 6 14.3S7 14.7 7 15.3V24.7C7 25.2 6.6 25.7 6 25.7"></path></g><g fill="black"><path fill="black" d="M10 28.5C9.4 28.5 9 28.1 9 27.5V12.5C9 11.9 9.4 11.5 10 11.5S11 11.9 11 12.5V27.5C11 28.1 10.6 28.5 10 28.5"></path></g><g fill="black"><path fill="black" d="M14 32.5C13.4 32.5 13 32.1 13 31.5V8.5C13 7.9 13.4 7.5 14 7.5S15 7.9 15 8.5V31.5C15 32.1 14.6 32.5 14 32.5"></path></g><g fill="black"><path fill="black" d="M18 29.5C17.4 29.5 17 29.1 17 28.5V11.5C17 10.9 17.4 10.5 18 10.5S19 10.9 19 11.5V28.5C19 29.1 18.6 29.5 18 29.5"></path></g><g fill="black"><path fill="black" d="M22 25.7C21.4 25.7 21 25.3 21 24.7V15.3C21 14.7 21.4 14.3 22 14.3S23 14.7 23 15.3V24.7C23 25.2 22.6 25.7 22 25.7"></path></g><g fill="black"><path fill="black" d="M26 28.5C25.4 28.5 25 28.1 25 27.5V12.5C25 11.9 25.4 11.5 26 11.5S27 11.9 27 12.5V27.5C27 28.1 26.6 28.5 26 28.5"></path></g><g fill="black"><path fill="black" d="M30 31.5C29.4 31.5 29 31.1 29 30.5V9.5C29 8.9 29.4 8.5 30 8.5S31 8.9 31 9.5V30.5C31 31.1 30.6 31.5 30 31.5"></path></g><g fill="black"><path fill="black" d="M34 25.7C33.4 25.7 33 25.3 33 24.7V15.3C33 14.7 33.4 14.3 34 14.3S35 14.7 35 15.3V24.7C35 25.2 34.6 25.7 34 25.7"></path></g></svg></g></svg></g><g></g></svg></g><defs><mask></mask></defs></svg><rect width="395.52" height="113.82192959944217" fill="black" stroke="none" visibility="hidden"></rect></g></mask></svg><rect width="395.52" height="113.82192959944217" fill="black" stroke="none" visibility="hidden"></rect></g></mask><linearGradient x1="0" x2="1" y1="0.578" y2="0.595" id="e67ca74d-0cfd-4a66-84c7-9da402322f61"><stop stop-color="#6ee2f5" offset="0"></stop><stop stop-color="#6454f0" offset="1"></stop></linearGradient><rect width="395.52" height="113.82192959944217" fill="url(#e67ca74d-0cfd-4a66-84c7-9da402322f61)" mask="url(#e477f16a-814a-46be-b925-5bf7845be994)" data-fill-palette-color="accent"></rect></svg><rect width="395.52" height="113.82192959944217" fill="none" stroke="none" visibility="hidden"></rect></g></svg></g></svg>